# xmcd CD database file
#
# Track frame offsets:
#	150
#	17812
#	29872
#	41836
#	55151
#	68249
#	80071
#	92729
#	112459
#	124016
#	136696
#	151138
#	161341
#	174280
#	183280
#	195362
#	209267
#	219947
#	233797
#	246121
#	261926
#	274139
#	285846
#
# Disc length: 3990 seconds
#
# Revision: 0
# Processed by: cddbd v1.4PL0 Copyright (c) Steve Scherf et al.
# Submitted via: CDex 1.51
#
DISCID=440f9417
DTITLE=Various Artist - The Best Country in Town Disc 2
DYEAR=1900
DGENRE=Country
TTITLE0=Greensleeves
TTITLE1=Leaving On A Jet Plane
TTITLE2=Operator
TTITLE3=Danny Boy
TTITLE4=Donna Donna
TTITLE5=Amazing Grace
TTITLE6=Blowing In The Wind
TTITLE7=Whispering Pines
TTITLE8=Help Me Make It through The Night
TTITLE9=All for The Love Of a Girl
TTITLE10=Then You Can Tell Me Goodbey
TTITLE11=By The Time I Get To Phoenx
TTITLE12=Gone The Rainbow
TTITLE13=Rose Rose I Love You
TTITLE14=House Of The Rising Sun
TTITLE15=Sewwt Dreams
TTITLE16=I Cannot Stop Loving You
TTITLE17=For The Good Times
TTITLE18=Devoted To You
TTITLE19=4 55 (Part Of Game)
TTITLE20=The Battle Of New Orleans
TTITLE21=Kiss an Angel Good Morning
TTITLE22=The Hanging Tree
EXTD=
EXTT0=
EXTT1=
EXTT2=
EXTT3=
EXTT4=
EXTT5=
EXTT6=
EXTT7=
EXTT8=
EXTT9=
EXTT10=
EXTT11=
EXTT12=
EXTT13=
EXTT14=
EXTT15=
EXTT16=
EXTT17=
EXTT18=
EXTT19=
EXTT20=
EXTT21=
EXTT22=
PLAYORDER=
